<svg viewBox="0 0 1024.002 1089.841" xmlns="http://www.w3.org/2000/svg"><path d="M359.344 489.72L297.7 527.327l-43.94-28.857c-5.82-17.462-25.832-33.733-60-48.51l-90.918-39.838C34.337 380.092 0 342.94 0 298.606c0-23.584 8.806-43.58 26.438-59.85 17.594-16.27 39.1-24.473 64.177-24.473 35.83 0 67.314 12.076 94.338 36.265 26.873 24.19 40.29 52.385 40.29 84.322 0 2.4-.586 10.45-1.776 24.19l-.454 9.996c-.605 6.425-.907 11.206-.907 14.495 0 20.883 16.573 38.95 49.872 54.18 5.82 2.817 11.49 5.954 17.008 9.09l70.357 42.9zm200.94 243.518l339.067 171.48 124.65-23.64-374.31-271.28c-40.29-29.215-40.667-36.283-89.915-22.015l-15.836 4.573-93.375-52.1-64.8 41.385 101.14 71.567 6.387 22.035c11.244 38.778 31.276 39.93 66.993 57.998zm-21.977-379.204l333.963-168.89 135.554 10.923L636.066 469.65c-40.177 29.576-47.604 48.606-97.437 34.168l-21.77-6.293-39.12 21.827-107.245 62.268c-16.29 9.543-27.63 15.647-33.733 17.915l-9.58 3.572c-25.06 9.26-37.608 25.966-37.608 50.136v4.044l.907 10.885 1.324 21.506c1.965 39.516-19.39 78.03-64.31 115.353-44.938 37.627-92.24 56.43-141.79 56.43-25.096 0-45.544-6.425-61.645-19.106C8.07 829.674 0 813.686 0 794.146c0-25.38 24.926-53.746 74.798-84.927l138.52-86.572c30.294-18.955 45.507-35.963 45.507-51.043 0-1.776-.302-4.63-.756-8.806l122.42-76.367 79.334-49.758 7.654-26.38c10.507-36.304 37.852-39.573 70.83-56.26zm-447.69 12.472l21.335 10.47c19.257 9.108 34.923 13.587 46.867 13.587 23.3 0 34.94-16.29 34.94-48.964 0-23.888-10.752-45.98-32.39-66.125-21.487-20.145-45.24-30.16-71.207-30.16-15.534 0-28.8 5.385-40.007 16.138C38.968 272.338 33.3 285.17 33.3 299.948c0 24.794 19.105 47.018 57.316 66.558zm88.8 315.274l-100.14 62.363c-30.596 19.257-45.98 36.114-45.98 50.287 0 11.81 4.63 20.466 14.023 26.287 9.26 5.82 23.3 8.806 41.953 8.806 38.514 0 76.272-15.08 113.293-45.07 37.002-30.01 55.503-60.606 55.503-91.788 0-21.052-9.242-31.503-27.592-31.503-11.055 0-28.063 6.88-51.062 20.618zm190.585-123.29c14.192 0 21.355-6.88 21.355-20.618s-7.162-20.58-21.355-20.58c-14.022 0-21.033 6.84-21.033 20.58S355.98 558.49 370 558.49z"/></svg>